<mxfile host="app.diagrams.net" agent="Mozilla/5.0 (Linux; Android 10; K) AppleWebKit/537.36 (KHTML, like Gecko) Chrome/129.0.0.0 Mobile Safari/537.36" version="24.7.17">
  <diagram name="Page-1" id="CfBxTzi2J9O3RzM_ZHFc">
    <mxGraphModel dx="539" dy="246" grid="0" gridSize="10" guides="1" tooltips="1" connect="1" arrows="1" fold="1" page="0" pageScale="1" pageWidth="850" pageHeight="1100" math="0" shadow="0">
      <root>
        <mxCell id="0" />
        <mxCell id="1" parent="0" />
        <mxCell id="mshpGFRv4VoHxe7VCNMp-25" value="Neema" style="rounded=1;whiteSpace=wrap;html=1;" vertex="1" parent="1">
          <mxGeometry x="463" y="570" width="70" height="24" as="geometry" />
        </mxCell>
        <mxCell id="RYdbgMhQ3IMl6QBj3OY3-3" value="" style="edgeStyle=none;curved=1;rounded=0;orthogonalLoop=1;jettySize=auto;html=1;fontSize=12;startSize=8;endSize=8;exitX=0.5;exitY=1;exitDx=0;exitDy=0;" parent="1" source="RYdbgMhQ3IMl6QBj3OY3-1" target="RYdbgMhQ3IMl6QBj3OY3-2" edge="1">
          <mxGeometry relative="1" as="geometry">
            <mxPoint x="207" y="289" as="sourcePoint" />
          </mxGeometry>
        </mxCell>
        <mxCell id="RYdbgMhQ3IMl6QBj3OY3-1" value="Chamyals" style="whiteSpace=wrap;html=1;" parent="1" vertex="1">
          <mxGeometry x="139" y="216" width="120" height="52" as="geometry" />
        </mxCell>
        <mxCell id="RYdbgMhQ3IMl6QBj3OY3-19" style="edgeStyle=none;curved=1;rounded=0;orthogonalLoop=1;jettySize=auto;html=1;entryX=0.5;entryY=0;entryDx=0;entryDy=0;fontSize=12;startSize=8;endSize=8;" parent="1" source="RYdbgMhQ3IMl6QBj3OY3-2" target="RYdbgMhQ3IMl6QBj3OY3-5" edge="1">
          <mxGeometry relative="1" as="geometry" />
        </mxCell>
        <mxCell id="RYdbgMhQ3IMl6QBj3OY3-2" value="Madhav Singh Chamyal" style="rounded=1;whiteSpace=wrap;html=1;" parent="1" vertex="1">
          <mxGeometry x="126.5" y="299" width="145" height="25" as="geometry" />
        </mxCell>
        <mxCell id="mshpGFRv4VoHxe7VCNMp-2" value="" style="edgeStyle=none;curved=1;rounded=0;orthogonalLoop=1;jettySize=auto;html=1;fontSize=12;startSize=8;endSize=8;" edge="1" parent="1" source="RYdbgMhQ3IMl6QBj3OY3-4" target="mshpGFRv4VoHxe7VCNMp-1">
          <mxGeometry relative="1" as="geometry" />
        </mxCell>
        <mxCell id="mshpGFRv4VoHxe7VCNMp-3" value="" style="edgeStyle=none;curved=1;rounded=0;orthogonalLoop=1;jettySize=auto;html=1;fontSize=12;startSize=8;endSize=8;" edge="1" parent="1" source="RYdbgMhQ3IMl6QBj3OY3-4" target="mshpGFRv4VoHxe7VCNMp-1">
          <mxGeometry relative="1" as="geometry" />
        </mxCell>
        <mxCell id="mshpGFRv4VoHxe7VCNMp-6" value="" style="edgeStyle=none;curved=1;rounded=0;orthogonalLoop=1;jettySize=auto;html=1;fontSize=12;startSize=8;endSize=8;" edge="1" parent="1" source="RYdbgMhQ3IMl6QBj3OY3-4" target="mshpGFRv4VoHxe7VCNMp-4">
          <mxGeometry relative="1" as="geometry" />
        </mxCell>
        <mxCell id="mshpGFRv4VoHxe7VCNMp-7" value="" style="edgeStyle=none;curved=1;rounded=0;orthogonalLoop=1;jettySize=auto;html=1;fontSize=12;startSize=8;endSize=8;" edge="1" parent="1" source="RYdbgMhQ3IMl6QBj3OY3-4" target="mshpGFRv4VoHxe7VCNMp-4">
          <mxGeometry relative="1" as="geometry" />
        </mxCell>
        <mxCell id="mshpGFRv4VoHxe7VCNMp-8" style="edgeStyle=none;curved=1;rounded=0;orthogonalLoop=1;jettySize=auto;html=1;entryX=0.5;entryY=0;entryDx=0;entryDy=0;fontSize=12;startSize=8;endSize=8;" edge="1" parent="1" source="RYdbgMhQ3IMl6QBj3OY3-4" target="mshpGFRv4VoHxe7VCNMp-5">
          <mxGeometry relative="1" as="geometry" />
        </mxCell>
        <mxCell id="mshpGFRv4VoHxe7VCNMp-13" style="edgeStyle=none;curved=1;rounded=0;orthogonalLoop=1;jettySize=auto;html=1;entryX=0.5;entryY=0;entryDx=0;entryDy=0;fontSize=12;startSize=8;endSize=8;" edge="1" parent="1" source="RYdbgMhQ3IMl6QBj3OY3-4" target="mshpGFRv4VoHxe7VCNMp-11">
          <mxGeometry relative="1" as="geometry" />
        </mxCell>
        <mxCell id="RYdbgMhQ3IMl6QBj3OY3-4" value="Kheem Singh Chamyal &amp;amp; Janaki Devi" style="rounded=1;whiteSpace=wrap;html=1;" parent="1" vertex="1">
          <mxGeometry x="-49" y="563" width="211.5" height="24" as="geometry" />
        </mxCell>
        <mxCell id="RYdbgMhQ3IMl6QBj3OY3-24" value="" style="edgeStyle=none;curved=1;rounded=0;orthogonalLoop=1;jettySize=auto;html=1;fontSize=12;startSize=8;endSize=8;entryX=0.5;entryY=0;entryDx=0;entryDy=0;" parent="1" source="RYdbgMhQ3IMl6QBj3OY3-5" target="RYdbgMhQ3IMl6QBj3OY3-6" edge="1">
          <mxGeometry relative="1" as="geometry" />
        </mxCell>
        <mxCell id="RYdbgMhQ3IMl6QBj3OY3-5" value="Vijay Singh Chamyal" style="rounded=1;whiteSpace=wrap;html=1;" parent="1" vertex="1">
          <mxGeometry x="126.5" y="348" width="145" height="27" as="geometry" />
        </mxCell>
        <mxCell id="RYdbgMhQ3IMl6QBj3OY3-25" value="" style="edgeStyle=none;curved=1;rounded=0;orthogonalLoop=1;jettySize=auto;html=1;fontSize=12;startSize=8;endSize=8;exitX=0.5;exitY=1;exitDx=0;exitDy=0;" parent="1" source="RYdbgMhQ3IMl6QBj3OY3-6" target="RYdbgMhQ3IMl6QBj3OY3-7" edge="1">
          <mxGeometry relative="1" as="geometry">
            <mxPoint x="199" y="442" as="sourcePoint" />
            <mxPoint x="199" y="497" as="targetPoint" />
          </mxGeometry>
        </mxCell>
        <mxCell id="RYdbgMhQ3IMl6QBj3OY3-6" value="Jorrn Singh Chamyal" style="rounded=1;whiteSpace=wrap;html=1;" parent="1" vertex="1">
          <mxGeometry x="116" y="407" width="166" height="22" as="geometry" />
        </mxCell>
        <mxCell id="RYdbgMhQ3IMl6QBj3OY3-12" value="Ram Singh Chamyal &amp;amp; Shomuli Devi" style="rounded=1;whiteSpace=wrap;html=1;" parent="1" vertex="1">
          <mxGeometry x="217" y="563" width="207" height="24" as="geometry" />
        </mxCell>
        <mxCell id="RYdbgMhQ3IMl6QBj3OY3-26" style="edgeStyle=none;curved=1;rounded=0;orthogonalLoop=1;jettySize=auto;html=1;fontSize=12;startSize=8;endSize=8;entryX=0.638;entryY=0;entryDx=0;entryDy=0;entryPerimeter=0;" parent="1" source="RYdbgMhQ3IMl6QBj3OY3-7" target="RYdbgMhQ3IMl6QBj3OY3-4" edge="1">
          <mxGeometry relative="1" as="geometry">
            <mxPoint x="69" y="553" as="targetPoint" />
          </mxGeometry>
        </mxCell>
        <mxCell id="RYdbgMhQ3IMl6QBj3OY3-29" value="" style="edgeStyle=none;curved=1;rounded=0;orthogonalLoop=1;jettySize=auto;html=1;fontSize=12;startSize=8;endSize=8;" parent="1" source="RYdbgMhQ3IMl6QBj3OY3-7" target="RYdbgMhQ3IMl6QBj3OY3-12" edge="1">
          <mxGeometry relative="1" as="geometry" />
        </mxCell>
        <mxCell id="RYdbgMhQ3IMl6QBj3OY3-7" value="Swargi Dhan Singh Chamyal &amp;amp; Devaki Devi" style="rounded=1;whiteSpace=wrap;html=1;" parent="1" vertex="1">
          <mxGeometry x="66" y="465" width="266" height="33" as="geometry" />
        </mxCell>
        <mxCell id="mshpGFRv4VoHxe7VCNMp-15" value="" style="edgeStyle=none;curved=1;rounded=0;orthogonalLoop=1;jettySize=auto;html=1;fontSize=12;startSize=8;endSize=8;" edge="1" parent="1" source="mshpGFRv4VoHxe7VCNMp-1" target="mshpGFRv4VoHxe7VCNMp-14">
          <mxGeometry relative="1" as="geometry" />
        </mxCell>
        <mxCell id="mshpGFRv4VoHxe7VCNMp-17" value="" style="edgeStyle=none;curved=1;rounded=0;orthogonalLoop=1;jettySize=auto;html=1;fontSize=12;startSize=8;endSize=8;" edge="1" parent="1" source="mshpGFRv4VoHxe7VCNMp-1" target="mshpGFRv4VoHxe7VCNMp-16">
          <mxGeometry relative="1" as="geometry" />
        </mxCell>
        <mxCell id="mshpGFRv4VoHxe7VCNMp-1" value="Pradeep Chamyal &amp;amp; Neeta Bhakuni" style="rounded=1;whiteSpace=wrap;html=1;" vertex="1" parent="1">
          <mxGeometry x="-320" y="696" width="110" height="45" as="geometry" />
        </mxCell>
        <mxCell id="mshpGFRv4VoHxe7VCNMp-4" value="Ghanshyam Chamyal &amp;amp; Neelu" style="rounded=1;whiteSpace=wrap;html=1;" vertex="1" parent="1">
          <mxGeometry x="-170" y="696" width="93" height="46" as="geometry" />
        </mxCell>
        <mxCell id="mshpGFRv4VoHxe7VCNMp-5" value="Dalip Singh Chamyal &amp;amp; Hema Chamyal" style="rounded=1;whiteSpace=wrap;html=1;arcSize=0;" vertex="1" parent="1">
          <mxGeometry x="-40" y="696" width="117" height="46" as="geometry" />
        </mxCell>
        <mxCell id="mshpGFRv4VoHxe7VCNMp-10" value="Champa Negi &amp;amp; Madan Negi" style="rounded=1;whiteSpace=wrap;html=1;arcSize=0;" vertex="1" parent="1">
          <mxGeometry x="100" y="695" width="117" height="46" as="geometry" />
        </mxCell>
        <mxCell id="mshpGFRv4VoHxe7VCNMp-11" value="Anandi Devi, Shankar Singh Dewari, Kusum Dewari" style="rounded=1;whiteSpace=wrap;html=1;arcSize=0;" vertex="1" parent="1">
          <mxGeometry x="232" y="695" width="117" height="46" as="geometry" />
        </mxCell>
        <mxCell id="mshpGFRv4VoHxe7VCNMp-12" style="edgeStyle=none;curved=1;rounded=0;orthogonalLoop=1;jettySize=auto;html=1;fontSize=12;startSize=8;endSize=8;" edge="1" parent="1" source="RYdbgMhQ3IMl6QBj3OY3-4">
          <mxGeometry relative="1" as="geometry">
            <mxPoint x="153" y="693" as="targetPoint" />
          </mxGeometry>
        </mxCell>
        <mxCell id="mshpGFRv4VoHxe7VCNMp-14" value="Nidhir" style="whiteSpace=wrap;html=1;rounded=1;" vertex="1" parent="1">
          <mxGeometry x="-350" y="806" width="55" height="19" as="geometry" />
        </mxCell>
        <mxCell id="mshpGFRv4VoHxe7VCNMp-16" value="Aksh" style="whiteSpace=wrap;html=1;rounded=1;" vertex="1" parent="1">
          <mxGeometry x="-246" y="806" width="52" height="19" as="geometry" />
        </mxCell>
        <mxCell id="mshpGFRv4VoHxe7VCNMp-22" value="Hema" style="rounded=1;whiteSpace=wrap;html=1;" vertex="1" parent="1">
          <mxGeometry x="465" y="605" width="68" height="21" as="geometry" />
        </mxCell>
        <mxCell id="mshpGFRv4VoHxe7VCNMp-23" value="Devaki" style="rounded=1;whiteSpace=wrap;html=1;" vertex="1" parent="1">
          <mxGeometry x="465" y="646" width="70" height="24" as="geometry" />
        </mxCell>
      </root>
    </mxGraphModel>
  </diagram>
</mxfile>
